<svg xmlns="http://www.w3.org/2000/svg" viewBox="0 0 814 300" font-family="ui-monospace,SFMono-Regular,Menlo,Consolas,monospace" role="img" aria-label="Per-provider 14-day availability from up1d"><text x="124" y="10" text-anchor="end" style="font:11px ui-monospace,SFMono-Regular,Menlo,Consolas,monospace;fill:#6e7681">provider</text><text x="168" y="10" style="font:11px ui-monospace,SFMono-Regular,Menlo,Consolas,monospace;fill:#6e7681">daily up1d, 14 d</text><text x="580" y="10" style="font:11px ui-monospace,SFMono-Regular,Menlo,Consolas,monospace;fill:#6e7681">mean</text><text x="664" y="10" style="font:11px ui-monospace,SFMono-Regular,Menlo,Consolas,monospace;fill:#6e7681">worst day</text><circle cx="145" cy="37.0" r="5" fill="#3fb884"/><text x="123" y="41.5" text-anchor="end" style="font:12.5px ui-monospace,SFMono-Regular,Menlo,Consolas,monospace;fill:#8b949e">OpenAI</text><polyline points="168.0,37.5 197.1,33.5 226.2,32.9 255.2,29.9 284.3,30.0 313.4,29.5 342.5,31.1 371.5,30.1 400.6,30.4 429.7,30.6 458.8,29.6 487.8,29.1 516.9,29.1 546.0,29.5" fill="none" stroke="#93a0f2" stroke-width="2" stroke-linejoin="round"/><text x="580" y="41.5" style="font:13px ui-monospace,SFMono-Regular,Menlo,Consolas,monospace;fill:#e6edf3">98.97%</text><text x="642" y="40.5" style="font:12px ui-monospace,SFMono-Regular,Menlo,Consolas,monospace;fill:#e36a6a">97.2%</text><circle cx="145" cy="71.0" r="5" fill="#3fb884"/><text x="123" y="75.5" text-anchor="end" style="font:12.5px ui-monospace,SFMono-Regular,Menlo,Consolas,monospace;fill:#8b949e">Google</text><polyline points="168.0,77.0 197.1,76.2 226.2,72.7 255.2,73.0 284.3,76.0 313.4,72.6 342.5,72.0 371.5,73.5 400.6,73.9 429.7,74.1 458.8,74.6 487.8,75.9 516.9,72.7 546.0,68.5" fill="none" stroke="#93a0f2" stroke-width="2" stroke-linejoin="round"/><text x="580" y="75.5" style="font:13px ui-monospace,SFMono-Regular,Menlo,Consolas,monospace;fill:#e6edf3">96.57%</text><text x="642" y="74.5" style="font:12px ui-monospace,SFMono-Regular,Menlo,Consolas,monospace;fill:#e36a6a">95.7%</text><circle cx="145" cy="105.0" r="5" fill="#3fb884"/><text x="123" y="109.5" text-anchor="end" style="font:12.5px ui-monospace,SFMono-Regular,Menlo,Consolas,monospace;fill:#8b949e">DeepInfra</text><polyline points="168.0,102.3 197.1,101.7 226.2,102.0 255.2,103.2 284.3,105.8 313.4,104.2 342.5,101.3 371.5,101.6 400.6,100.2 429.7,100.1 458.8,101.8 487.8,103.8 516.9,104.7 546.0,105.7" fill="none" stroke="#93a0f2" stroke-width="2" stroke-linejoin="round"/><text x="580" y="109.5" style="font:13px ui-monospace,SFMono-Regular,Menlo,Consolas,monospace;fill:#e6edf3">97.93%</text><text x="642" y="108.5" style="font:12px ui-monospace,SFMono-Regular,Menlo,Consolas,monospace;fill:#e36a6a">97.1%</text><circle cx="145" cy="139.0" r="5" fill="#3fb884"/><text x="123" y="143.5" text-anchor="end" style="font:12.5px ui-monospace,SFMono-Regular,Menlo,Consolas,monospace;fill:#8b949e">Azure</text><polyline points="168.0,138.7 197.1,137.7 226.2,138.0 255.2,137.4 284.3,137.7 313.4,134.9 342.5,129.7 371.5,131.8 400.6,133.0 429.7,134.6 458.8,135.0 487.8,133.4 516.9,132.5 546.0,131.9" fill="none" stroke="#93a0f2" stroke-width="2" stroke-linejoin="round"/><text x="580" y="143.5" style="font:13px ui-monospace,SFMono-Regular,Menlo,Consolas,monospace;fill:#e6edf3">98.48%</text><text x="642" y="142.5" style="font:12px ui-monospace,SFMono-Regular,Menlo,Consolas,monospace;fill:#e36a6a">97.4%</text><circle cx="145" cy="173.0" r="5" fill="#d9a63e"/><text x="123" y="177.5" text-anchor="end" style="font:12.5px ui-monospace,SFMono-Regular,Menlo,Consolas,monospace;fill:#8b949e">Novita</text><polyline points="168.0,176.0 197.1,174.2 226.2,175.5 255.2,174.7 284.3,174.6 313.4,174.9 342.5,174.8 371.5,175.0 400.6,175.4 429.7,176.0 458.8,176.2 487.8,176.9 516.9,176.9 546.0,175.5" fill="none" stroke="#93a0f2" stroke-width="2" stroke-linejoin="round"/><text x="580" y="177.5" style="font:13px ui-monospace,SFMono-Regular,Menlo,Consolas,monospace;fill:#e6edf3">96.66%</text><text x="642" y="176.5" style="font:12px ui-monospace,SFMono-Regular,Menlo,Consolas,monospace;fill:#e36a6a">96.3%</text><circle cx="145" cy="207.0" r="5" fill="#d9a63e"/><text x="123" y="211.5" text-anchor="end" style="font:12.5px ui-monospace,SFMono-Regular,Menlo,Consolas,monospace;fill:#8b949e">Alibaba</text><polyline points="168.0,205.9 197.1,205.7 226.2,205.9 255.2,205.8 284.3,199.1 313.4,198.8 342.5,199.0 371.5,199.9 400.6,199.1 429.7,198.8 458.8,198.8 487.8,198.9 516.9,198.6 546.0,198.9" fill="none" stroke="#93a0f2" stroke-width="2" stroke-linejoin="round"/><text x="580" y="211.5" style="font:13px ui-monospace,SFMono-Regular,Menlo,Consolas,monospace;fill:#e6edf3">98.96%</text><text x="642" y="210.5" style="font:12px ui-monospace,SFMono-Regular,Menlo,Consolas,monospace;fill:#e36a6a">97.6%</text><circle cx="145" cy="241.0" r="5" fill="#3fb884"/><text x="123" y="245.5" text-anchor="end" style="font:12.5px ui-monospace,SFMono-Regular,Menlo,Consolas,monospace;fill:#8b949e">Google AI Studio</text><polyline points="168.0,234.2 197.1,236.4 226.2,235.2 255.2,234.0 284.3,235.1 313.4,235.7 342.5,235.1 371.5,235.7 400.6,237.3 429.7,235.2 458.8,234.8 487.8,235.7 516.9,236.2 546.0,240.9" fill="none" stroke="#93a0f2" stroke-width="2" stroke-linejoin="round"/><text x="580" y="245.5" style="font:13px ui-monospace,SFMono-Regular,Menlo,Consolas,monospace;fill:#e6edf3">98.73%</text><text x="642" y="244.5" style="font:12px ui-monospace,SFMono-Regular,Menlo,Consolas,monospace;fill:#e36a6a">97.3%</text><circle cx="145" cy="275.0" r="5" fill="#3fb884"/><text x="123" y="279.5" text-anchor="end" style="font:12.5px ui-monospace,SFMono-Regular,Menlo,Consolas,monospace;fill:#8b949e">Amazon Bedrock</text><polyline points="168.0,277.0 197.1,278.7 226.2,283.2 255.2,282.5 284.3,281.4 313.4,280.9 342.5,277.0 371.5,276.8 400.6,276.5 429.7,277.7 458.8,278.3 487.8,280.0 516.9,283.1 546.0,278.5" fill="none" stroke="#93a0f2" stroke-width="2" stroke-linejoin="round"/><text x="580" y="279.5" style="font:13px ui-monospace,SFMono-Regular,Menlo,Consolas,monospace;fill:#e6edf3">96.13%</text><text x="642" y="278.5" style="font:12px ui-monospace,SFMono-Regular,Menlo,Consolas,monospace;fill:#e36a6a">95.1%</text></svg>