<svg xmlns="http://www.w3.org/2000/svg" viewBox="0 0 814 300" font-family="ui-monospace,SFMono-Regular,Menlo,Consolas,monospace" role="img" aria-label="Per-provider 14-day availability from up1d"><text x="124" y="10" text-anchor="end" style="font:11px ui-monospace,SFMono-Regular,Menlo,Consolas,monospace;fill:#818b98">provider</text><text x="168" y="10" style="font:11px ui-monospace,SFMono-Regular,Menlo,Consolas,monospace;fill:#818b98">daily up1d, 14 d</text><text x="580" y="10" style="font:11px ui-monospace,SFMono-Regular,Menlo,Consolas,monospace;fill:#818b98">mean</text><text x="664" y="10" style="font:11px ui-monospace,SFMono-Regular,Menlo,Consolas,monospace;fill:#818b98">worst day</text><circle cx="145" cy="37.0" r="5" fill="#1a9862"/><text x="123" y="41.5" text-anchor="end" style="font:12.5px ui-monospace,SFMono-Regular,Menlo,Consolas,monospace;fill:#59636e">OpenAI</text><polyline points="168.0,27.2 197.1,27.4 226.2,28.4 255.2,29.5 284.3,29.2 313.4,29.5 342.5,27.2 371.5,26.8 400.6,27.5 429.7,27.2 458.8,27.1 487.8,27.7 516.9,27.9 546.0,26.9" fill="none" stroke="#4a5bc4" stroke-width="2" stroke-linejoin="round"/><text x="580" y="41.5" style="font:13px ui-monospace,SFMono-Regular,Menlo,Consolas,monospace;fill:#1f2328">99.43%</text><text x="642" y="40.5" style="font:12px ui-monospace,SFMono-Regular,Menlo,Consolas,monospace;fill:#818b98">98.6%</text><circle cx="145" cy="71.0" r="5" fill="#1a9862"/><text x="123" y="75.5" text-anchor="end" style="font:12.5px ui-monospace,SFMono-Regular,Menlo,Consolas,monospace;fill:#59636e">Google</text><polyline points="168.0,73.9 197.1,73.9 226.2,74.3 255.2,76.6 284.3,80.0 313.4,79.9 342.5,79.2 371.5,76.9 400.6,79.6 429.7,75.9 458.8,67.9 487.8,66.1 516.9,66.2 546.0,66.0" fill="none" stroke="#4a5bc4" stroke-width="2" stroke-linejoin="round"/><text x="580" y="75.5" style="font:13px ui-monospace,SFMono-Regular,Menlo,Consolas,monospace;fill:#1f2328">93.59%</text><text x="642" y="74.5" style="font:12px ui-monospace,SFMono-Regular,Menlo,Consolas,monospace;fill:#cf4444">90.7%</text><circle cx="145" cy="105.0" r="5" fill="#1a9862"/><text x="123" y="109.5" text-anchor="end" style="font:12.5px ui-monospace,SFMono-Regular,Menlo,Consolas,monospace;fill:#59636e">DeepInfra</text><polyline points="168.0,99.6 197.1,101.2 226.2,101.5 255.2,100.1 284.3,100.4 313.4,99.6 342.5,99.0 371.5,96.8 400.6,98.3 429.7,102.2 458.8,102.9 487.8,101.4 516.9,99.1 546.0,97.1" fill="none" stroke="#4a5bc4" stroke-width="2" stroke-linejoin="round"/><text x="580" y="109.5" style="font:13px ui-monospace,SFMono-Regular,Menlo,Consolas,monospace;fill:#1f2328">97.46%</text><text x="642" y="108.5" style="font:12px ui-monospace,SFMono-Regular,Menlo,Consolas,monospace;fill:#cf4444">96.1%</text><circle cx="145" cy="139.0" r="5" fill="#1a9862"/><text x="123" y="143.5" text-anchor="end" style="font:12.5px ui-monospace,SFMono-Regular,Menlo,Consolas,monospace;fill:#59636e">Azure</text><polyline points="168.0,130.3 197.1,133.2 226.2,133.1 255.2,131.4 284.3,131.2 313.4,131.2 342.5,130.0 371.5,129.4 400.6,130.2 429.7,130.5 458.8,131.1 487.8,130.8 516.9,130.8 546.0,129.5" fill="none" stroke="#4a5bc4" stroke-width="2" stroke-linejoin="round"/><text x="580" y="143.5" style="font:13px ui-monospace,SFMono-Regular,Menlo,Consolas,monospace;fill:#1f2328">98.91%</text><text x="642" y="142.5" style="font:12px ui-monospace,SFMono-Regular,Menlo,Consolas,monospace;fill:#cf4444">97.8%</text><circle cx="145" cy="173.0" r="5" fill="#1a9862"/><text x="123" y="177.5" text-anchor="end" style="font:12.5px ui-monospace,SFMono-Regular,Menlo,Consolas,monospace;fill:#59636e">Novita</text><polyline points="168.0,166.8 197.1,167.0 226.2,168.0 255.2,168.3 284.3,169.0 313.4,168.0 342.5,167.4 371.5,166.0 400.6,166.1 429.7,167.4 458.8,167.6 487.8,167.7 516.9,167.5 546.0,167.9" fill="none" stroke="#4a5bc4" stroke-width="2" stroke-linejoin="round"/><text x="580" y="177.5" style="font:13px ui-monospace,SFMono-Regular,Menlo,Consolas,monospace;fill:#1f2328">97.67%</text><text x="642" y="176.5" style="font:12px ui-monospace,SFMono-Regular,Menlo,Consolas,monospace;fill:#cf4444">97.0%</text><circle cx="145" cy="207.0" r="5" fill="#b98300"/><text x="123" y="211.5" text-anchor="end" style="font:12.5px ui-monospace,SFMono-Regular,Menlo,Consolas,monospace;fill:#59636e">Alibaba</text><polyline points="168.0,197.4 197.1,197.4 226.2,197.2 255.2,197.2 284.3,197.4 313.4,197.4 342.5,197.5 371.5,197.5 400.6,197.4 429.7,197.4 458.8,197.4 487.8,197.4 516.9,198.6 546.0,199.8" fill="none" stroke="#4a5bc4" stroke-width="2" stroke-linejoin="round"/><text x="580" y="211.5" style="font:13px ui-monospace,SFMono-Regular,Menlo,Consolas,monospace;fill:#1f2328">99.51%</text><text x="642" y="210.5" style="font:12px ui-monospace,SFMono-Regular,Menlo,Consolas,monospace;fill:#818b98">98.5%</text><circle cx="145" cy="241.0" r="5" fill="#1a9862"/><text x="123" y="245.5" text-anchor="end" style="font:12.5px ui-monospace,SFMono-Regular,Menlo,Consolas,monospace;fill:#59636e">Amazon Bedrock</text><polyline points="168.0,232.1 197.1,233.2 226.2,235.3 255.2,236.1 284.3,236.2 313.4,234.4 342.5,233.2 371.5,232.9 400.6,232.8 429.7,233.8 458.8,234.2 487.8,235.3 516.9,233.5 546.0,234.7" fill="none" stroke="#4a5bc4" stroke-width="2" stroke-linejoin="round"/><text x="580" y="245.5" style="font:13px ui-monospace,SFMono-Regular,Menlo,Consolas,monospace;fill:#1f2328">98.33%</text><text x="642" y="244.5" style="font:12px ui-monospace,SFMono-Regular,Menlo,Consolas,monospace;fill:#cf4444">97.4%</text><circle cx="145" cy="275.0" r="5" fill="#1a9862"/><text x="123" y="279.5" text-anchor="end" style="font:12.5px ui-monospace,SFMono-Regular,Menlo,Consolas,monospace;fill:#59636e">Google AI Studio</text><polyline points="168.0,265.3 197.1,265.3 226.2,265.4 255.2,265.3 284.3,265.2 313.4,265.3 342.5,265.2 371.5,264.9 400.6,265.1 429.7,265.0 458.8,264.9 487.8,264.9 516.9,265.1 546.0,265.2" fill="none" stroke="#4a5bc4" stroke-width="2" stroke-linejoin="round"/><text x="580" y="279.5" style="font:13px ui-monospace,SFMono-Regular,Menlo,Consolas,monospace;fill:#1f2328">99.75%</text><text x="642" y="278.5" style="font:12px ui-monospace,SFMono-Regular,Menlo,Consolas,monospace;fill:#818b98">99.6%</text></svg>