<svg xmlns="http://www.w3.org/2000/svg" viewBox="0 0 814 300" font-family="ui-monospace,SFMono-Regular,Menlo,Consolas,monospace" role="img" aria-label="Per-provider 14-day availability from up1d"><text x="124" y="10" text-anchor="end" style="font:11px ui-monospace,SFMono-Regular,Menlo,Consolas,monospace;fill:#818b98">provider</text><text x="168" y="10" style="font:11px ui-monospace,SFMono-Regular,Menlo,Consolas,monospace;fill:#818b98">daily up1d, 14 d</text><text x="580" y="10" style="font:11px ui-monospace,SFMono-Regular,Menlo,Consolas,monospace;fill:#818b98">mean</text><text x="664" y="10" style="font:11px ui-monospace,SFMono-Regular,Menlo,Consolas,monospace;fill:#818b98">worst day</text><circle cx="145" cy="37.0" r="5" fill="#1a9862"/><text x="123" y="41.5" text-anchor="end" style="font:12.5px ui-monospace,SFMono-Regular,Menlo,Consolas,monospace;fill:#59636e">OpenAI</text><polyline points="168.0,34.7 197.1,32.1 226.2,32.0 255.2,30.2 284.3,31.3 313.4,36.9 342.5,33.0 371.5,32.5 400.6,29.7 429.7,29.8 458.8,29.3 487.8,30.8 516.9,29.9 546.0,29.9" fill="none" stroke="#4a5bc4" stroke-width="2" stroke-linejoin="round"/><text x="580" y="41.5" style="font:13px ui-monospace,SFMono-Regular,Menlo,Consolas,monospace;fill:#1f2328">98.70%</text><text x="642" y="40.5" style="font:12px ui-monospace,SFMono-Regular,Menlo,Consolas,monospace;fill:#cf4444">97.2%</text><circle cx="145" cy="71.0" r="5" fill="#1a9862"/><text x="123" y="75.5" text-anchor="end" style="font:12.5px ui-monospace,SFMono-Regular,Menlo,Consolas,monospace;fill:#59636e">Google</text><polyline points="168.0,72.7 197.1,71.3 226.2,70.4 255.2,69.1 284.3,73.8 313.4,76.0 342.5,75.3 371.5,71.9 400.6,72.3 429.7,75.1 458.8,71.8 487.8,71.3 516.9,72.7 546.0,72.7" fill="none" stroke="#4a5bc4" stroke-width="2" stroke-linejoin="round"/><text x="580" y="75.5" style="font:13px ui-monospace,SFMono-Regular,Menlo,Consolas,monospace;fill:#1f2328">96.68%</text><text x="642" y="74.5" style="font:12px ui-monospace,SFMono-Regular,Menlo,Consolas,monospace;fill:#cf4444">95.7%</text><circle cx="145" cy="105.0" r="5" fill="#1a9862"/><text x="123" y="109.5" text-anchor="end" style="font:12.5px ui-monospace,SFMono-Regular,Menlo,Consolas,monospace;fill:#59636e">DeepInfra</text><polyline points="168.0,101.0 197.1,102.3 226.2,102.4 255.2,101.4 284.3,102.6 313.4,101.9 342.5,101.3 371.5,101.5 400.6,102.7 429.7,105.1 458.8,103.6 487.8,100.9 516.9,101.2 546.0,100.2" fill="none" stroke="#4a5bc4" stroke-width="2" stroke-linejoin="round"/><text x="580" y="109.5" style="font:13px ui-monospace,SFMono-Regular,Menlo,Consolas,monospace;fill:#1f2328">98.00%</text><text x="642" y="108.5" style="font:12px ui-monospace,SFMono-Regular,Menlo,Consolas,monospace;fill:#cf4444">97.1%</text><circle cx="145" cy="139.0" r="5" fill="#1a9862"/><text x="123" y="143.5" text-anchor="end" style="font:12.5px ui-monospace,SFMono-Regular,Menlo,Consolas,monospace;fill:#59636e">Azure</text><polyline points="168.0,131.9 197.1,136.1 226.2,137.2 255.2,137.8 284.3,138.0 313.4,138.1 342.5,137.1 371.5,137.4 400.6,136.8 429.7,137.1 458.8,134.5 487.8,129.6 516.9,131.6 546.0,132.1" fill="none" stroke="#4a5bc4" stroke-width="2" stroke-linejoin="round"/><text x="580" y="143.5" style="font:13px ui-monospace,SFMono-Regular,Menlo,Consolas,monospace;fill:#1f2328">98.18%</text><text x="642" y="142.5" style="font:12px ui-monospace,SFMono-Regular,Menlo,Consolas,monospace;fill:#cf4444">97.4%</text><circle cx="145" cy="173.0" r="5" fill="#1a9862"/><text x="123" y="177.5" text-anchor="end" style="font:12.5px ui-monospace,SFMono-Regular,Menlo,Consolas,monospace;fill:#59636e">Novita</text><polyline points="168.0,173.4 197.1,173.5 226.2,172.8 255.2,173.6 284.3,174.5 313.4,175.2 342.5,173.4 371.5,174.7 400.6,174.0 429.7,173.9 458.8,174.2 487.8,174.1 516.9,174.3 546.0,174.3" fill="none" stroke="#4a5bc4" stroke-width="2" stroke-linejoin="round"/><text x="580" y="177.5" style="font:13px ui-monospace,SFMono-Regular,Menlo,Consolas,monospace;fill:#1f2328">96.86%</text><text x="642" y="176.5" style="font:12px ui-monospace,SFMono-Regular,Menlo,Consolas,monospace;fill:#cf4444">96.5%</text><circle cx="145" cy="207.0" r="5" fill="#1a9862"/><text x="123" y="211.5" text-anchor="end" style="font:12.5px ui-monospace,SFMono-Regular,Menlo,Consolas,monospace;fill:#59636e">Google AI Studio</text><polyline points="168.0,201.3 197.1,200.5 226.2,203.8 255.2,202.1 284.3,200.8 313.4,199.9 342.5,202.1 371.5,200.9 400.6,199.8 429.7,200.8 458.8,201.3 487.8,200.8 516.9,201.3 546.0,202.8" fill="none" stroke="#4a5bc4" stroke-width="2" stroke-linejoin="round"/><text x="580" y="211.5" style="font:13px ui-monospace,SFMono-Regular,Menlo,Consolas,monospace;fill:#1f2328">98.78%</text><text x="642" y="210.5" style="font:12px ui-monospace,SFMono-Regular,Menlo,Consolas,monospace;fill:#818b98">98.1%</text><circle cx="145" cy="241.0" r="5" fill="#1a9862"/><text x="123" y="245.5" text-anchor="end" style="font:12.5px ui-monospace,SFMono-Regular,Menlo,Consolas,monospace;fill:#59636e">Amazon Bedrock</text><polyline points="168.0,244.6 197.1,245.2 226.2,246.3 255.2,249.3 284.3,244.6 313.4,242.3 342.5,243.9 371.5,248.0 400.6,247.4 429.7,246.4 458.8,245.9 487.8,242.2 516.9,242.0 546.0,241.1" fill="none" stroke="#4a5bc4" stroke-width="2" stroke-linejoin="round"/><text x="580" y="245.5" style="font:13px ui-monospace,SFMono-Regular,Menlo,Consolas,monospace;fill:#1f2328">96.00%</text><text x="642" y="244.5" style="font:12px ui-monospace,SFMono-Regular,Menlo,Consolas,monospace;fill:#cf4444">94.8%</text><circle cx="145" cy="275.0" r="5" fill="#1a9862"/><text x="123" y="279.5" text-anchor="end" style="font:12.5px ui-monospace,SFMono-Regular,Menlo,Consolas,monospace;fill:#59636e">Alibaba</text><polyline points="168.0,274.5 197.1,274.2 226.2,274.5 255.2,274.1 284.3,273.8 313.4,273.3 342.5,273.2 371.5,273.3 400.6,273.2 429.7,266.9 458.8,266.6 487.8,266.8 516.9,267.7 546.0,267.1" fill="none" stroke="#4a5bc4" stroke-width="2" stroke-linejoin="round"/><text x="580" y="279.5" style="font:13px ui-monospace,SFMono-Regular,Menlo,Consolas,monospace;fill:#1f2328">98.18%</text><text x="642" y="278.5" style="font:12px ui-monospace,SFMono-Regular,Menlo,Consolas,monospace;fill:#cf4444">97.3%</text></svg>