<svg xmlns="http://www.w3.org/2000/svg" viewBox="0 0 814 300" font-family="ui-monospace,SFMono-Regular,Menlo,Consolas,monospace" role="img" aria-label="Per-provider 14-day availability from up1d"><text x="124" y="10" text-anchor="end" style="font:11px ui-monospace,SFMono-Regular,Menlo,Consolas,monospace;fill:#6e7681">provider</text><text x="168" y="10" style="font:11px ui-monospace,SFMono-Regular,Menlo,Consolas,monospace;fill:#6e7681">daily up1d, 14 d</text><text x="580" y="10" style="font:11px ui-monospace,SFMono-Regular,Menlo,Consolas,monospace;fill:#6e7681">mean</text><text x="664" y="10" style="font:11px ui-monospace,SFMono-Regular,Menlo,Consolas,monospace;fill:#6e7681">worst day</text><circle cx="145" cy="37.0" r="5" fill="#3fb884"/><text x="123" y="41.5" text-anchor="end" style="font:12.5px ui-monospace,SFMono-Regular,Menlo,Consolas,monospace;fill:#8b949e">OpenAI</text><polyline points="168.0,27.6 197.1,27.6 226.2,28.2 255.2,28.3 284.3,27.5 313.4,27.1 342.5,27.3 371.5,28.3 400.6,29.3 429.7,29.0 458.8,29.3 487.8,27.1 516.9,26.7 546.0,27.1" fill="none" stroke="#93a0f2" stroke-width="2" stroke-linejoin="round"/><text x="580" y="41.5" style="font:13px ui-monospace,SFMono-Regular,Menlo,Consolas,monospace;fill:#e6edf3">99.34%</text><text x="642" y="40.5" style="font:12px ui-monospace,SFMono-Regular,Menlo,Consolas,monospace;fill:#6e7681">98.6%</text><circle cx="145" cy="71.0" r="5" fill="#d9a63e"/><text x="123" y="75.5" text-anchor="end" style="font:12.5px ui-monospace,SFMono-Regular,Menlo,Consolas,monospace;fill:#8b949e">Google</text><polyline points="168.0,75.4 197.1,74.4 226.2,72.8 255.2,71.6 284.3,73.3 313.4,73.0 342.5,73.1 371.5,73.5 400.6,75.6 429.7,78.8 458.8,78.7 487.8,78.0 516.9,75.9 546.0,80.0" fill="none" stroke="#93a0f2" stroke-width="2" stroke-linejoin="round"/><text x="580" y="75.5" style="font:13px ui-monospace,SFMono-Regular,Menlo,Consolas,monospace;fill:#e6edf3">92.52%</text><text x="642" y="74.5" style="font:12px ui-monospace,SFMono-Regular,Menlo,Consolas,monospace;fill:#e36a6a">90.1%</text><circle cx="145" cy="105.0" r="5" fill="#3fb884"/><text x="123" y="109.5" text-anchor="end" style="font:12.5px ui-monospace,SFMono-Regular,Menlo,Consolas,monospace;fill:#8b949e">DeepInfra</text><polyline points="168.0,99.3 197.1,100.5 226.2,101.8 255.2,101.8 284.3,99.0 313.4,99.3 342.5,100.8 371.5,101.1 400.6,99.7 429.7,100.0 458.8,99.3 487.8,98.7 516.9,96.6 546.0,97.4" fill="none" stroke="#93a0f2" stroke-width="2" stroke-linejoin="round"/><text x="580" y="109.5" style="font:13px ui-monospace,SFMono-Regular,Menlo,Consolas,monospace;fill:#e6edf3">97.42%</text><text x="642" y="108.5" style="font:12px ui-monospace,SFMono-Regular,Menlo,Consolas,monospace;fill:#e36a6a">96.3%</text><circle cx="145" cy="139.0" r="5" fill="#3fb884"/><text x="123" y="143.5" text-anchor="end" style="font:12.5px ui-monospace,SFMono-Regular,Menlo,Consolas,monospace;fill:#8b949e">Azure</text><polyline points="168.0,131.8 197.1,131.6 226.2,131.4 255.2,131.8 284.3,130.4 313.4,130.2 342.5,132.9 371.5,132.8 400.6,131.2 429.7,131.1 458.8,131.0 487.8,129.9 516.9,129.3 546.0,129.4" fill="none" stroke="#93a0f2" stroke-width="2" stroke-linejoin="round"/><text x="580" y="143.5" style="font:13px ui-monospace,SFMono-Regular,Menlo,Consolas,monospace;fill:#e6edf3">98.75%</text><text x="642" y="142.5" style="font:12px ui-monospace,SFMono-Regular,Menlo,Consolas,monospace;fill:#e36a6a">97.8%</text><circle cx="145" cy="173.0" r="5" fill="#3fb884"/><text x="123" y="177.5" text-anchor="end" style="font:12.5px ui-monospace,SFMono-Regular,Menlo,Consolas,monospace;fill:#8b949e">Novita</text><polyline points="168.0,168.2 197.1,167.1 226.2,167.4 255.2,166.9 284.3,166.7 313.4,166.5 342.5,166.7 371.5,167.7 400.6,167.9 429.7,168.6 458.8,167.7 487.8,167.1 516.9,165.8 546.0,165.7" fill="none" stroke="#93a0f2" stroke-width="2" stroke-linejoin="round"/><text x="580" y="177.5" style="font:13px ui-monospace,SFMono-Regular,Menlo,Consolas,monospace;fill:#e6edf3">97.69%</text><text x="642" y="176.5" style="font:12px ui-monospace,SFMono-Regular,Menlo,Consolas,monospace;fill:#e36a6a">97.0%</text><circle cx="145" cy="207.0" r="5" fill="#3fb884"/><text x="123" y="211.5" text-anchor="end" style="font:12.5px ui-monospace,SFMono-Regular,Menlo,Consolas,monospace;fill:#8b949e">Alibaba</text><polyline points="168.0,197.7 197.1,197.5 226.2,197.7 255.2,197.6 284.3,197.4 313.4,197.3 342.5,197.3 371.5,197.2 400.6,197.2 429.7,197.4 458.8,197.3 487.8,197.4 516.9,197.4 546.0,197.4" fill="none" stroke="#93a0f2" stroke-width="2" stroke-linejoin="round"/><text x="580" y="211.5" style="font:13px ui-monospace,SFMono-Regular,Menlo,Consolas,monospace;fill:#e6edf3">99.58%</text><text x="642" y="210.5" style="font:12px ui-monospace,SFMono-Regular,Menlo,Consolas,monospace;fill:#6e7681">99.4%</text><circle cx="145" cy="241.0" r="5" fill="#3fb884"/><text x="123" y="245.5" text-anchor="end" style="font:12.5px ui-monospace,SFMono-Regular,Menlo,Consolas,monospace;fill:#8b949e">Google AI Studio</text><polyline points="168.0,233.9 197.1,234.6 226.2,233.2 255.2,232.4 284.3,232.0 313.4,231.3 342.5,231.2 371.5,231.3 400.6,231.2 429.7,231.2 458.8,231.3 487.8,231.1 516.9,230.9 546.0,231.1" fill="none" stroke="#93a0f2" stroke-width="2" stroke-linejoin="round"/><text x="580" y="245.5" style="font:13px ui-monospace,SFMono-Regular,Menlo,Consolas,monospace;fill:#e6edf3">99.34%</text><text x="642" y="244.5" style="font:12px ui-monospace,SFMono-Regular,Menlo,Consolas,monospace;fill:#e36a6a">97.9%</text><circle cx="145" cy="275.0" r="5" fill="#3fb884"/><text x="123" y="279.5" text-anchor="end" style="font:12.5px ui-monospace,SFMono-Regular,Menlo,Consolas,monospace;fill:#8b949e">Amazon Bedrock</text><polyline points="168.0,268.5 197.1,269.4 226.2,268.1 255.2,267.5 284.3,266.5 313.4,266.0 342.5,267.0 371.5,269.0 400.6,269.7 429.7,269.8 458.8,268.2 487.8,267.0 516.9,266.7 546.0,266.6" fill="none" stroke="#93a0f2" stroke-width="2" stroke-linejoin="round"/><text x="580" y="279.5" style="font:13px ui-monospace,SFMono-Regular,Menlo,Consolas,monospace;fill:#e6edf3">98.34%</text><text x="642" y="278.5" style="font:12px ui-monospace,SFMono-Regular,Menlo,Consolas,monospace;fill:#e36a6a">97.4%</text></svg>