<svg xmlns="http://www.w3.org/2000/svg" viewBox="0 0 814 300" font-family="ui-monospace,SFMono-Regular,Menlo,Consolas,monospace" role="img" aria-label="Per-provider 14-day availability from up1d"><text x="124" y="10" text-anchor="end" style="font:11px ui-monospace,SFMono-Regular,Menlo,Consolas,monospace;fill:#6e7681">provider</text><text x="168" y="10" style="font:11px ui-monospace,SFMono-Regular,Menlo,Consolas,monospace;fill:#6e7681">daily up1d, 14 d</text><text x="580" y="10" style="font:11px ui-monospace,SFMono-Regular,Menlo,Consolas,monospace;fill:#6e7681">mean</text><text x="664" y="10" style="font:11px ui-monospace,SFMono-Regular,Menlo,Consolas,monospace;fill:#6e7681">worst day</text><circle cx="145" cy="37.0" r="5" fill="#3fb884"/><text x="123" y="41.5" text-anchor="end" style="font:12.5px ui-monospace,SFMono-Regular,Menlo,Consolas,monospace;fill:#8b949e">OpenAI</text><polyline points="168.0,27.6 197.1,27.2 226.2,27.4 255.2,28.4 284.3,29.5 313.4,29.2 342.5,29.5 371.5,27.2 400.6,26.8 429.7,27.5 458.8,27.2 487.8,27.1 516.9,27.7 546.0,28.4" fill="none" stroke="#93a0f2" stroke-width="2" stroke-linejoin="round"/><text x="580" y="41.5" style="font:13px ui-monospace,SFMono-Regular,Menlo,Consolas,monospace;fill:#e6edf3">99.39%</text><text x="642" y="40.5" style="font:12px ui-monospace,SFMono-Regular,Menlo,Consolas,monospace;fill:#6e7681">98.6%</text><circle cx="145" cy="71.0" r="5" fill="#3fb884"/><text x="123" y="75.5" text-anchor="end" style="font:12.5px ui-monospace,SFMono-Regular,Menlo,Consolas,monospace;fill:#8b949e">Google</text><polyline points="168.0,74.2 197.1,73.9 226.2,73.9 255.2,74.3 284.3,76.6 313.4,80.0 342.5,79.9 371.5,79.2 400.6,76.9 429.7,79.6 458.8,75.9 487.8,67.9 516.9,66.1 546.0,66.2" fill="none" stroke="#93a0f2" stroke-width="2" stroke-linejoin="round"/><text x="580" y="75.5" style="font:13px ui-monospace,SFMono-Regular,Menlo,Consolas,monospace;fill:#e6edf3">93.31%</text><text x="642" y="74.5" style="font:12px ui-monospace,SFMono-Regular,Menlo,Consolas,monospace;fill:#e36a6a">90.7%</text><circle cx="145" cy="105.0" r="5" fill="#3fb884"/><text x="123" y="109.5" text-anchor="end" style="font:12.5px ui-monospace,SFMono-Regular,Menlo,Consolas,monospace;fill:#8b949e">DeepInfra</text><polyline points="168.0,99.3 197.1,99.6 226.2,101.2 255.2,101.5 284.3,100.1 313.4,100.4 342.5,99.6 371.5,99.0 400.6,96.8 429.7,98.3 458.8,102.2 487.8,102.9 516.9,101.4 546.0,99.6" fill="none" stroke="#93a0f2" stroke-width="2" stroke-linejoin="round"/><text x="580" y="109.5" style="font:13px ui-monospace,SFMono-Regular,Menlo,Consolas,monospace;fill:#e6edf3">97.36%</text><text x="642" y="108.5" style="font:12px ui-monospace,SFMono-Regular,Menlo,Consolas,monospace;fill:#e36a6a">96.1%</text><circle cx="145" cy="139.0" r="5" fill="#3fb884"/><text x="123" y="143.5" text-anchor="end" style="font:12.5px ui-monospace,SFMono-Regular,Menlo,Consolas,monospace;fill:#8b949e">Azure</text><polyline points="168.0,130.5 197.1,130.3 226.2,133.2 255.2,133.1 284.3,131.4 313.4,131.2 342.5,131.2 371.5,130.0 400.6,129.4 429.7,130.2 458.8,130.5 487.8,131.1 516.9,130.8 546.0,131.1" fill="none" stroke="#93a0f2" stroke-width="2" stroke-linejoin="round"/><text x="580" y="143.5" style="font:13px ui-monospace,SFMono-Regular,Menlo,Consolas,monospace;fill:#e6edf3">98.86%</text><text x="642" y="142.5" style="font:12px ui-monospace,SFMono-Regular,Menlo,Consolas,monospace;fill:#e36a6a">97.8%</text><circle cx="145" cy="173.0" r="5" fill="#3fb884"/><text x="123" y="177.5" text-anchor="end" style="font:12.5px ui-monospace,SFMono-Regular,Menlo,Consolas,monospace;fill:#8b949e">Novita</text><polyline points="168.0,167.0 197.1,166.8 226.2,167.0 255.2,168.0 284.3,168.3 313.4,169.0 342.5,168.0 371.5,167.4 400.6,166.0 429.7,166.1 458.8,167.4 487.8,167.6 516.9,167.7 546.0,167.3" fill="none" stroke="#93a0f2" stroke-width="2" stroke-linejoin="round"/><text x="580" y="177.5" style="font:13px ui-monospace,SFMono-Regular,Menlo,Consolas,monospace;fill:#e6edf3">97.71%</text><text x="642" y="176.5" style="font:12px ui-monospace,SFMono-Regular,Menlo,Consolas,monospace;fill:#e36a6a">97.0%</text><circle cx="145" cy="207.0" r="5" fill="#d9a63e"/><text x="123" y="211.5" text-anchor="end" style="font:12.5px ui-monospace,SFMono-Regular,Menlo,Consolas,monospace;fill:#8b949e">Alibaba</text><polyline points="168.0,197.5 197.1,197.4 226.2,197.4 255.2,197.2 284.3,197.2 313.4,197.4 342.5,197.4 371.5,197.5 400.6,197.5 429.7,197.4 458.8,197.4 487.8,197.4 516.9,197.4 546.0,198.0" fill="none" stroke="#93a0f2" stroke-width="2" stroke-linejoin="round"/><text x="580" y="211.5" style="font:13px ui-monospace,SFMono-Regular,Menlo,Consolas,monospace;fill:#e6edf3">99.60%</text><text x="642" y="210.5" style="font:12px ui-monospace,SFMono-Regular,Menlo,Consolas,monospace;fill:#6e7681">99.3%</text><circle cx="145" cy="241.0" r="5" fill="#3fb884"/><text x="123" y="245.5" text-anchor="end" style="font:12.5px ui-monospace,SFMono-Regular,Menlo,Consolas,monospace;fill:#8b949e">Amazon Bedrock</text><polyline points="168.0,232.6 197.1,232.1 226.2,233.2 255.2,235.3 284.3,236.1 313.4,236.2 342.5,234.4 371.5,233.2 400.6,232.9 429.7,232.8 458.8,233.8 487.8,234.2 516.9,235.3 546.0,233.8" fill="none" stroke="#93a0f2" stroke-width="2" stroke-linejoin="round"/><text x="580" y="245.5" style="font:13px ui-monospace,SFMono-Regular,Menlo,Consolas,monospace;fill:#e6edf3">98.39%</text><text x="642" y="244.5" style="font:12px ui-monospace,SFMono-Regular,Menlo,Consolas,monospace;fill:#e36a6a">97.4%</text><circle cx="145" cy="275.0" r="5" fill="#3fb884"/><text x="123" y="279.5" text-anchor="end" style="font:12.5px ui-monospace,SFMono-Regular,Menlo,Consolas,monospace;fill:#8b949e">Google AI Studio</text><polyline points="168.0,266.1 197.1,265.3 226.2,265.3 255.2,265.4 284.3,265.3 313.4,265.2 342.5,265.3 371.5,265.2 400.6,264.9 429.7,265.1 458.8,265.0 487.8,264.9 516.9,264.9 546.0,265.0" fill="none" stroke="#93a0f2" stroke-width="2" stroke-linejoin="round"/><text x="580" y="279.5" style="font:13px ui-monospace,SFMono-Regular,Menlo,Consolas,monospace;fill:#e6edf3">99.72%</text><text x="642" y="278.5" style="font:12px ui-monospace,SFMono-Regular,Menlo,Consolas,monospace;fill:#6e7681">99.3%</text></svg>