<svg xmlns="http://www.w3.org/2000/svg" viewBox="0 0 814 300" font-family="ui-monospace,SFMono-Regular,Menlo,Consolas,monospace" role="img" aria-label="Per-provider 14-day availability from up1d"><text x="124" y="10" text-anchor="end" style="font:11px ui-monospace,SFMono-Regular,Menlo,Consolas,monospace;fill:#818b98">provider</text><text x="168" y="10" style="font:11px ui-monospace,SFMono-Regular,Menlo,Consolas,monospace;fill:#818b98">daily up1d, 14 d</text><text x="580" y="10" style="font:11px ui-monospace,SFMono-Regular,Menlo,Consolas,monospace;fill:#818b98">mean</text><text x="664" y="10" style="font:11px ui-monospace,SFMono-Regular,Menlo,Consolas,monospace;fill:#818b98">worst day</text><circle cx="145" cy="37.0" r="5" fill="#1a9862"/><text x="123" y="41.5" text-anchor="end" style="font:12.5px ui-monospace,SFMono-Regular,Menlo,Consolas,monospace;fill:#59636e">OpenAI</text><polyline points="168.0,28.2 197.1,28.2 226.2,27.7 255.2,27.9 284.3,28.2 313.4,29.3 342.5,29.2 371.5,28.6 400.6,27.5 429.7,27.7 458.8,28.0 487.8,28.1 516.9,28.8 546.0,29.1" fill="none" stroke="#4a5bc4" stroke-width="2" stroke-linejoin="round"/><text x="580" y="41.5" style="font:13px ui-monospace,SFMono-Regular,Menlo,Consolas,monospace;fill:#1f2328">99.37%</text><text x="642" y="40.5" style="font:12px ui-monospace,SFMono-Regular,Menlo,Consolas,monospace;fill:#818b98">99.0%</text><circle cx="145" cy="71.0" r="5" fill="#1a9862"/><text x="123" y="75.5" text-anchor="end" style="font:12.5px ui-monospace,SFMono-Regular,Menlo,Consolas,monospace;fill:#59636e">Google</text><polyline points="168.0,70.0 197.1,73.6 226.2,74.6 255.2,72.3 284.3,69.3 313.4,76.6 342.5,77.8 371.5,76.1 400.6,75.4 429.7,79.8 458.8,79.5 487.8,78.2 516.9,76.3 546.0,74.5" fill="none" stroke="#4a5bc4" stroke-width="2" stroke-linejoin="round"/><text x="580" y="75.5" style="font:13px ui-monospace,SFMono-Regular,Menlo,Consolas,monospace;fill:#1f2328">94.16%</text><text x="642" y="74.5" style="font:12px ui-monospace,SFMono-Regular,Menlo,Consolas,monospace;fill:#cf4444">92.4%</text><circle cx="145" cy="105.0" r="5" fill="#1a9862"/><text x="123" y="109.5" text-anchor="end" style="font:12.5px ui-monospace,SFMono-Regular,Menlo,Consolas,monospace;fill:#59636e">DeepInfra</text><polyline points="168.0,100.6 197.1,100.1 226.2,100.7 255.2,102.8 284.3,100.4 313.4,102.3 342.5,99.1 371.5,99.2 400.6,100.0 429.7,100.9 458.8,100.8 487.8,102.3 516.9,103.9 546.0,105.5" fill="none" stroke="#4a5bc4" stroke-width="2" stroke-linejoin="round"/><text x="580" y="109.5" style="font:13px ui-monospace,SFMono-Regular,Menlo,Consolas,monospace;fill:#1f2328">97.36%</text><text x="642" y="108.5" style="font:12px ui-monospace,SFMono-Regular,Menlo,Consolas,monospace;fill:#cf4444">95.7%</text><circle cx="145" cy="139.0" r="5" fill="#1a9862"/><text x="123" y="143.5" text-anchor="end" style="font:12.5px ui-monospace,SFMono-Regular,Menlo,Consolas,monospace;fill:#59636e">Azure</text><polyline points="168.0,131.3 197.1,129.7 226.2,133.3 255.2,133.2 284.3,131.1 313.4,131.6 342.5,132.0 371.5,133.3 400.6,131.7 429.7,131.1 458.8,132.8 487.8,132.5 516.9,132.3 546.0,133.1" fill="none" stroke="#4a5bc4" stroke-width="2" stroke-linejoin="round"/><text x="580" y="143.5" style="font:13px ui-monospace,SFMono-Regular,Menlo,Consolas,monospace;fill:#1f2328">98.67%</text><text x="642" y="142.5" style="font:12px ui-monospace,SFMono-Regular,Menlo,Consolas,monospace;fill:#818b98">98.2%</text><circle cx="145" cy="173.0" r="5" fill="#1a9862"/><text x="123" y="177.5" text-anchor="end" style="font:12.5px ui-monospace,SFMono-Regular,Menlo,Consolas,monospace;fill:#59636e">Novita</text><polyline points="168.0,168.9 197.1,168.0 226.2,168.7 255.2,169.2 284.3,168.7 313.4,168.2 342.5,168.7 371.5,168.7 400.6,168.2 429.7,169.3 458.8,169.8 487.8,168.5 516.9,168.8 546.0,168.3" fill="none" stroke="#4a5bc4" stroke-width="2" stroke-linejoin="round"/><text x="580" y="177.5" style="font:13px ui-monospace,SFMono-Regular,Menlo,Consolas,monospace;fill:#1f2328">97.60%</text><text x="642" y="176.5" style="font:12px ui-monospace,SFMono-Regular,Menlo,Consolas,monospace;fill:#cf4444">97.2%</text><circle cx="145" cy="207.0" r="5" fill="#1a9862"/><text x="123" y="211.5" text-anchor="end" style="font:12.5px ui-monospace,SFMono-Regular,Menlo,Consolas,monospace;fill:#59636e">Google AI Studio</text><polyline points="168.0,199.3 197.1,199.5 226.2,199.2 255.2,198.0 284.3,199.1 313.4,198.7 342.5,198.8 371.5,198.2 400.6,198.5 429.7,200.6 458.8,201.0 487.8,201.9 516.9,200.0 546.0,199.0" fill="none" stroke="#4a5bc4" stroke-width="2" stroke-linejoin="round"/><text x="580" y="211.5" style="font:13px ui-monospace,SFMono-Regular,Menlo,Consolas,monospace;fill:#1f2328">98.93%</text><text x="642" y="210.5" style="font:12px ui-monospace,SFMono-Regular,Menlo,Consolas,monospace;fill:#cf4444">97.9%</text><circle cx="145" cy="241.0" r="5" fill="#1a9862"/><text x="123" y="245.5" text-anchor="end" style="font:12.5px ui-monospace,SFMono-Regular,Menlo,Consolas,monospace;fill:#59636e">Alibaba</text><polyline points="168.0,231.7 197.1,231.7 226.2,231.8 255.2,232.1 284.3,232.1 313.4,231.9 342.5,231.9 371.5,232.2 400.6,231.9 429.7,231.8 458.8,232.1 487.8,231.9 516.9,232.1 546.0,231.9" fill="none" stroke="#4a5bc4" stroke-width="2" stroke-linejoin="round"/><text x="580" y="245.5" style="font:13px ui-monospace,SFMono-Regular,Menlo,Consolas,monospace;fill:#1f2328">99.52%</text><text x="642" y="244.5" style="font:12px ui-monospace,SFMono-Regular,Menlo,Consolas,monospace;fill:#818b98">99.4%</text><circle cx="145" cy="275.0" r="5" fill="#1a9862"/><text x="123" y="279.5" text-anchor="end" style="font:12.5px ui-monospace,SFMono-Regular,Menlo,Consolas,monospace;fill:#59636e">Amazon Bedrock</text><polyline points="168.0,266.8 197.1,269.0 226.2,272.7 255.2,273.0 284.3,271.3 313.4,270.5 342.5,270.1 371.5,268.6 400.6,267.8 429.7,268.5 458.8,269.7 487.8,270.8 516.9,269.2 546.0,269.0" fill="none" stroke="#4a5bc4" stroke-width="2" stroke-linejoin="round"/><text x="580" y="279.5" style="font:13px ui-monospace,SFMono-Regular,Menlo,Consolas,monospace;fill:#1f2328">97.98%</text><text x="642" y="278.5" style="font:12px ui-monospace,SFMono-Regular,Menlo,Consolas,monospace;fill:#cf4444">96.7%</text></svg>