<svg xmlns="http://www.w3.org/2000/svg" viewBox="0 0 814 300" font-family="ui-monospace,SFMono-Regular,Menlo,Consolas,monospace" role="img" aria-label="Per-provider 14-day availability from up1d"><text x="124" y="10" text-anchor="end" style="font:11px ui-monospace,SFMono-Regular,Menlo,Consolas,monospace;fill:#818b98">provider</text><text x="168" y="10" style="font:11px ui-monospace,SFMono-Regular,Menlo,Consolas,monospace;fill:#818b98">daily up1d, 14 d</text><text x="580" y="10" style="font:11px ui-monospace,SFMono-Regular,Menlo,Consolas,monospace;fill:#818b98">mean</text><text x="664" y="10" style="font:11px ui-monospace,SFMono-Regular,Menlo,Consolas,monospace;fill:#818b98">worst day</text><circle cx="145" cy="37.0" r="5" fill="#1a9862"/><text x="123" y="41.5" text-anchor="end" style="font:12.5px ui-monospace,SFMono-Regular,Menlo,Consolas,monospace;fill:#59636e">OpenAI</text><polyline points="168.0,27.7 197.1,27.5 226.2,27.7 255.2,28.0 284.3,28.1 313.4,28.7 342.5,28.7 371.5,28.0 400.6,27.5 429.7,27.8 458.8,28.4 487.8,30.1 516.9,39.2 546.0,39.5" fill="none" stroke="#4a5bc4" stroke-width="2" stroke-linejoin="round"/><text x="580" y="41.5" style="font:13px ui-monospace,SFMono-Regular,Menlo,Consolas,monospace;fill:#1f2328">99.40%</text><text x="642" y="40.5" style="font:12px ui-monospace,SFMono-Regular,Menlo,Consolas,monospace;fill:#cf4444">97.1%</text><circle cx="145" cy="71.0" r="5" fill="#1a9862"/><text x="123" y="75.5" text-anchor="end" style="font:12.5px ui-monospace,SFMono-Regular,Menlo,Consolas,monospace;fill:#59636e">Google</text><polyline points="168.0,72.4 197.1,72.6 226.2,72.7 255.2,72.9 284.3,72.1 313.4,72.6 342.5,72.9 371.5,70.7 400.6,71.1 429.7,69.6 458.8,66.4 487.8,67.3 516.9,71.1 546.0,73.7" fill="none" stroke="#4a5bc4" stroke-width="2" stroke-linejoin="round"/><text x="580" y="75.5" style="font:13px ui-monospace,SFMono-Regular,Menlo,Consolas,monospace;fill:#1f2328">97.61%</text><text x="642" y="74.5" style="font:12px ui-monospace,SFMono-Regular,Menlo,Consolas,monospace;fill:#cf4444">97.0%</text><circle cx="145" cy="105.0" r="5" fill="#1a9862"/><text x="123" y="109.5" text-anchor="end" style="font:12.5px ui-monospace,SFMono-Regular,Menlo,Consolas,monospace;fill:#59636e">Azure</text><polyline points="168.0,96.4 197.1,98.1 226.2,100.8 255.2,100.6 284.3,100.6 313.4,97.5 342.5,96.5 371.5,96.5 400.6,96.5 429.7,97.0 458.8,96.4 487.8,96.9 516.9,96.6 546.0,97.8" fill="none" stroke="#4a5bc4" stroke-width="2" stroke-linejoin="round"/><text x="580" y="109.5" style="font:13px ui-monospace,SFMono-Regular,Menlo,Consolas,monospace;fill:#1f2328">99.41%</text><text x="642" y="108.5" style="font:12px ui-monospace,SFMono-Regular,Menlo,Consolas,monospace;fill:#818b98">98.7%</text><circle cx="145" cy="139.0" r="5" fill="#1a9862"/><text x="123" y="143.5" text-anchor="end" style="font:12.5px ui-monospace,SFMono-Regular,Menlo,Consolas,monospace;fill:#59636e">DeepInfra</text><polyline points="168.0,133.5 197.1,133.8 226.2,133.7 255.2,134.7 284.3,134.0 313.4,132.5 342.5,133.0 371.5,133.2 400.6,132.9 429.7,134.0 458.8,134.0 487.8,134.0 516.9,136.9 546.0,137.3" fill="none" stroke="#4a5bc4" stroke-width="2" stroke-linejoin="round"/><text x="580" y="143.5" style="font:13px ui-monospace,SFMono-Regular,Menlo,Consolas,monospace;fill:#1f2328">98.84%</text><text x="642" y="142.5" style="font:12px ui-monospace,SFMono-Regular,Menlo,Consolas,monospace;fill:#818b98">98.1%</text><circle cx="145" cy="173.0" r="5" fill="#1a9862"/><text x="123" y="177.5" text-anchor="end" style="font:12.5px ui-monospace,SFMono-Regular,Menlo,Consolas,monospace;fill:#59636e">Amazon Bedrock</text><polyline points="168.0,174.0 197.1,180.3 226.2,180.7 255.2,180.9 284.3,178.5 313.4,176.9 342.5,168.2 371.5,172.6 400.6,170.9 429.7,171.2 458.8,174.6 487.8,170.5 516.9,172.6 546.0,175.8" fill="none" stroke="#4a5bc4" stroke-width="2" stroke-linejoin="round"/><text x="580" y="177.5" style="font:13px ui-monospace,SFMono-Regular,Menlo,Consolas,monospace;fill:#1f2328">97.24%</text><text x="642" y="176.5" style="font:12px ui-monospace,SFMono-Regular,Menlo,Consolas,monospace;fill:#cf4444">95.8%</text><circle cx="145" cy="207.0" r="5" fill="#1a9862"/><text x="123" y="211.5" text-anchor="end" style="font:12.5px ui-monospace,SFMono-Regular,Menlo,Consolas,monospace;fill:#59636e">Alibaba</text><polyline points="168.0,204.8 197.1,208.6 226.2,207.3 255.2,205.1 284.3,203.7 313.4,202.0 342.5,204.6 371.5,205.8 400.6,207.3 429.7,205.5 458.8,202.2 487.8,202.4 516.9,201.4 546.0,200.2" fill="none" stroke="#4a5bc4" stroke-width="2" stroke-linejoin="round"/><text x="580" y="211.5" style="font:13px ui-monospace,SFMono-Regular,Menlo,Consolas,monospace;fill:#1f2328">98.31%</text><text x="642" y="210.5" style="font:12px ui-monospace,SFMono-Regular,Menlo,Consolas,monospace;fill:#cf4444">97.3%</text><circle cx="145" cy="241.0" r="5" fill="#1a9862"/><text x="123" y="245.5" text-anchor="end" style="font:12.5px ui-monospace,SFMono-Regular,Menlo,Consolas,monospace;fill:#59636e">Novita</text><polyline points="168.0,241.2 197.1,240.1 226.2,241.7 255.2,245.0 284.3,244.9 313.4,242.4 342.5,242.8 371.5,241.7 400.6,240.6 429.7,240.5 458.8,240.5 487.8,241.2 516.9,247.0 546.0,244.9" fill="none" stroke="#4a5bc4" stroke-width="2" stroke-linejoin="round"/><text x="580" y="245.5" style="font:13px ui-monospace,SFMono-Regular,Menlo,Consolas,monospace;fill:#1f2328">97.33%</text><text x="642" y="244.5" style="font:12px ui-monospace,SFMono-Regular,Menlo,Consolas,monospace;fill:#cf4444">96.2%</text><circle cx="145" cy="275.0" r="5" fill="#1a9862"/><text x="123" y="279.5" text-anchor="end" style="font:12.5px ui-monospace,SFMono-Regular,Menlo,Consolas,monospace;fill:#59636e">Mistral</text><polyline points="168.0,266.4 197.1,266.2 226.2,266.2 255.2,267.2 284.3,267.3 313.4,266.2 342.5,266.6 371.5,266.6 400.6,266.3 429.7,266.4 458.8,266.5 487.8,267.3 516.9,267.3 546.0,269.1" fill="none" stroke="#4a5bc4" stroke-width="2" stroke-linejoin="round"/><text x="580" y="279.5" style="font:13px ui-monospace,SFMono-Regular,Menlo,Consolas,monospace;fill:#1f2328">99.63%</text><text x="642" y="278.5" style="font:12px ui-monospace,SFMono-Regular,Menlo,Consolas,monospace;fill:#818b98">99.1%</text></svg>