<svg xmlns="http://www.w3.org/2000/svg" viewBox="0 0 814 300" font-family="ui-monospace,SFMono-Regular,Menlo,Consolas,monospace" role="img" aria-label="Per-provider 14-day availability from up1d"><text x="124" y="10" text-anchor="end" style="font:11px ui-monospace,SFMono-Regular,Menlo,Consolas,monospace;fill:#6e7681">provider</text><text x="168" y="10" style="font:11px ui-monospace,SFMono-Regular,Menlo,Consolas,monospace;fill:#6e7681">daily up1d, 14 d</text><text x="580" y="10" style="font:11px ui-monospace,SFMono-Regular,Menlo,Consolas,monospace;fill:#6e7681">mean</text><text x="664" y="10" style="font:11px ui-monospace,SFMono-Regular,Menlo,Consolas,monospace;fill:#6e7681">worst day</text><circle cx="145" cy="37.0" r="5" fill="#3fb884"/><text x="123" y="41.5" text-anchor="end" style="font:12.5px ui-monospace,SFMono-Regular,Menlo,Consolas,monospace;fill:#8b949e">OpenAI</text><polyline points="168.0,45.8 197.1,46.1 226.2,45.6 255.2,39.8 284.3,39.6 313.4,36.8 342.5,29.1 371.5,29.8 400.6,30.4 429.7,30.4 458.8,29.1 487.8,29.0 516.9,28.1 546.0,28.2" fill="none" stroke="#93a0f2" stroke-width="2" stroke-linejoin="round"/><text x="580" y="41.5" style="font:13px ui-monospace,SFMono-Regular,Menlo,Consolas,monospace;fill:#e6edf3">95.30%</text><text x="642" y="40.5" style="font:12px ui-monospace,SFMono-Regular,Menlo,Consolas,monospace;fill:#e36a6a">88.9%</text><circle cx="145" cy="71.0" r="5" fill="#d9a63e"/><text x="123" y="75.5" text-anchor="end" style="font:12.5px ui-monospace,SFMono-Regular,Menlo,Consolas,monospace;fill:#8b949e">Google</text><polyline points="168.0,74.3 197.1,74.3 226.2,68.6 255.2,67.6 284.3,67.6 313.4,68.1 342.5,67.5 371.5,64.7 400.6,64.2 429.7,66.4 458.8,65.7 487.8,65.3 516.9,64.6 546.0,64.8" fill="none" stroke="#93a0f2" stroke-width="2" stroke-linejoin="round"/><text x="580" y="75.5" style="font:13px ui-monospace,SFMono-Regular,Menlo,Consolas,monospace;fill:#e6edf3">96.10%</text><text x="642" y="74.5" style="font:12px ui-monospace,SFMono-Regular,Menlo,Consolas,monospace;fill:#e36a6a">92.2%</text><circle cx="145" cy="105.0" r="5" fill="#3fb884"/><text x="123" y="109.5" text-anchor="end" style="font:12.5px ui-monospace,SFMono-Regular,Menlo,Consolas,monospace;fill:#8b949e">DeepInfra</text><polyline points="168.0,98.1 197.1,97.6 226.2,97.8 255.2,98.3 284.3,98.8 313.4,98.8 342.5,98.6 371.5,97.2 400.6,97.2 429.7,97.5 458.8,98.2 487.8,98.2 516.9,97.8 546.0,98.0" fill="none" stroke="#93a0f2" stroke-width="2" stroke-linejoin="round"/><text x="580" y="109.5" style="font:13px ui-monospace,SFMono-Regular,Menlo,Consolas,monospace;fill:#e6edf3">98.03%</text><text x="642" y="108.5" style="font:12px ui-monospace,SFMono-Regular,Menlo,Consolas,monospace;fill:#e36a6a">97.6%</text><circle cx="145" cy="139.0" r="5" fill="#3fb884"/><text x="123" y="143.5" text-anchor="end" style="font:12.5px ui-monospace,SFMono-Regular,Menlo,Consolas,monospace;fill:#8b949e">Novita</text><polyline points="168.0,134.9 197.1,133.9 226.2,136.0 255.2,135.4 284.3,134.5 313.4,134.2 342.5,134.2 371.5,133.2 400.6,133.0 429.7,133.8 458.8,133.9 487.8,133.5 516.9,133.9 546.0,133.8" fill="none" stroke="#93a0f2" stroke-width="2" stroke-linejoin="round"/><text x="580" y="143.5" style="font:13px ui-monospace,SFMono-Regular,Menlo,Consolas,monospace;fill:#e6edf3">96.82%</text><text x="642" y="142.5" style="font:12px ui-monospace,SFMono-Regular,Menlo,Consolas,monospace;fill:#e36a6a">95.8%</text><circle cx="145" cy="173.0" r="5" fill="#3fb884"/><text x="123" y="177.5" text-anchor="end" style="font:12.5px ui-monospace,SFMono-Regular,Menlo,Consolas,monospace;fill:#8b949e">Azure</text><polyline points="168.0,163.0 197.1,163.3 226.2,163.3 255.2,164.1 284.3,163.8 313.4,163.2 342.5,163.1 371.5,163.1 400.6,164.1 429.7,164.0 458.8,166.1 487.8,166.7 516.9,166.9 546.0,167.0" fill="none" stroke="#93a0f2" stroke-width="2" stroke-linejoin="round"/><text x="580" y="177.5" style="font:13px ui-monospace,SFMono-Regular,Menlo,Consolas,monospace;fill:#e6edf3">98.94%</text><text x="642" y="176.5" style="font:12px ui-monospace,SFMono-Regular,Menlo,Consolas,monospace;fill:#e36a6a">97.5%</text><circle cx="145" cy="207.0" r="5" fill="#3fb884"/><text x="123" y="211.5" text-anchor="end" style="font:12.5px ui-monospace,SFMono-Regular,Menlo,Consolas,monospace;fill:#8b949e">Alibaba</text><polyline points="168.0,202.6 197.1,201.7 226.2,201.8 255.2,201.4 284.3,201.5 313.4,202.3 342.5,202.0 371.5,201.1 400.6,201.4 429.7,201.3 458.8,201.2 487.8,201.4 516.9,201.1 546.0,201.0" fill="none" stroke="#93a0f2" stroke-width="2" stroke-linejoin="round"/><text x="580" y="211.5" style="font:13px ui-monospace,SFMono-Regular,Menlo,Consolas,monospace;fill:#e6edf3">97.16%</text><text x="642" y="210.5" style="font:12px ui-monospace,SFMono-Regular,Menlo,Consolas,monospace;fill:#e36a6a">96.6%</text><circle cx="145" cy="241.0" r="5" fill="#3fb884"/><text x="123" y="245.5" text-anchor="end" style="font:12.5px ui-monospace,SFMono-Regular,Menlo,Consolas,monospace;fill:#8b949e">Google AI Studio</text><polyline points="168.0,232.8 197.1,232.3 226.2,232.1 255.2,232.3 284.3,232.7 313.4,232.8 342.5,233.0 371.5,233.1 400.6,232.9 429.7,232.7 458.8,232.3 487.8,233.9 516.9,233.1 546.0,232.9" fill="none" stroke="#93a0f2" stroke-width="2" stroke-linejoin="round"/><text x="580" y="245.5" style="font:13px ui-monospace,SFMono-Regular,Menlo,Consolas,monospace;fill:#e6edf3">98.73%</text><text x="642" y="244.5" style="font:12px ui-monospace,SFMono-Regular,Menlo,Consolas,monospace;fill:#6e7681">98.1%</text><circle cx="145" cy="275.0" r="5" fill="#3fb884"/><text x="123" y="279.5" text-anchor="end" style="font:12.5px ui-monospace,SFMono-Regular,Menlo,Consolas,monospace;fill:#8b949e">Amazon Bedrock</text><polyline points="168.0,268.7 197.1,269.2 226.2,270.3 255.2,270.4 284.3,273.0 313.4,274.2 342.5,271.9 371.5,270.2 400.6,270.6 429.7,271.4 458.8,271.7 487.8,272.3 516.9,273.8 546.0,272.6" fill="none" stroke="#93a0f2" stroke-width="2" stroke-linejoin="round"/><text x="580" y="279.5" style="font:13px ui-monospace,SFMono-Regular,Menlo,Consolas,monospace;fill:#e6edf3">96.08%</text><text x="642" y="278.5" style="font:12px ui-monospace,SFMono-Regular,Menlo,Consolas,monospace;fill:#e36a6a">94.5%</text></svg>